<svg width="72" height="115" viewBox="0 0 72 115" fill="none" xmlns="http://www.w3.org/2000/svg">
<mask id="mask0_157_2" style="mask-type:alpha" maskUnits="userSpaceOnUse" x="0" y="0" width="11" height="11">
<path d="M5.22839 10.425C8.11595 10.425 10.4568 8.09121 10.4568 5.21245C10.4568 2.33368 8.11595 0 5.22839 0C2.34083 0 0 2.33368 0 5.21245C0 8.09121 2.34083 10.425 5.22839 10.425Z" fill="url(#paint0_linear_157_2)"/>
</mask>
<g mask="url(#mask0_157_2)">
<path d="M5.22839 10.425C8.11595 10.425 10.4568 8.09121 10.4568 5.21245C10.4568 2.33368 8.11595 0 5.22839 0C2.34083 0 0 2.33368 0 5.21245C0 8.09121 2.34083 10.425 5.22839 10.425Z" fill="url(#paint1_linear_157_2)"/>
</g>
<mask id="mask1_157_2" style="mask-type:alpha" maskUnits="userSpaceOnUse" x="30" y="0" width="11" height="11">
<path d="M35.5095 10.425C38.397 10.425 40.7378 8.09121 40.7378 5.21245C40.7378 2.33368 38.397 0 35.5095 0C32.6219 0 30.2811 2.33368 30.2811 5.21245C30.2811 8.09121 32.6219 10.425 35.5095 10.425Z" fill="url(#paint2_linear_157_2)"/>
</mask>
<g mask="url(#mask1_157_2)">
<path d="M35.5095 10.425C38.397 10.425 40.7378 8.09121 40.7378 5.21245C40.7378 2.33368 38.397 0 35.5095 0C32.6219 0 30.2811 2.33368 30.2811 5.21245C30.2811 8.09121 32.6219 10.425 35.5095 10.425Z" fill="url(#paint3_linear_157_2)"/>
</g>
<mask id="mask2_157_2" style="mask-type:alpha" maskUnits="userSpaceOnUse" x="60" y="0" width="12" height="11">
<path d="M65.7905 10.425C68.6781 10.425 71.0189 8.09121 71.0189 5.21245C71.0189 2.33368 68.6781 0 65.7905 0C62.903 0 60.5621 2.33368 60.5621 5.21245C60.5621 8.09121 62.903 10.425 65.7905 10.425Z" fill="url(#paint4_linear_157_2)"/>
</mask>
<g mask="url(#mask2_157_2)">
<path d="M65.7905 10.425C68.6781 10.425 71.0189 8.09121 71.0189 5.21245C71.0189 2.33368 68.6781 0 65.7905 0C62.903 0 60.5621 2.33368 60.5621 5.21245C60.5621 8.09121 62.903 10.425 65.7905 10.425Z" fill="url(#paint5_linear_157_2)"/>
</g>
<mask id="mask3_157_2" style="mask-type:alpha" maskUnits="userSpaceOnUse" x="0" y="26" width="11" height="11">
<path d="M5.22839 36.5958C8.11595 36.5958 10.4568 34.2621 10.4568 31.3834C10.4568 28.5046 8.11595 26.171 5.22839 26.171C2.34083 26.171 0 28.5046 0 31.3834C0 34.2621 2.34083 36.5958 5.22839 36.5958Z" fill="url(#paint6_linear_157_2)"/>
</mask>
<g mask="url(#mask3_157_2)">
<path d="M5.22839 36.5958C8.11595 36.5958 10.4568 34.2621 10.4568 31.3834C10.4568 28.5046 8.11595 26.171 5.22839 26.171C2.34083 26.171 0 28.5046 0 31.3834C0 34.2621 2.34083 36.5958 5.22839 36.5958Z" fill="url(#paint7_linear_157_2)"/>
</g>
<mask id="mask4_157_2" style="mask-type:alpha" maskUnits="userSpaceOnUse" x="30" y="26" width="11" height="11">
<path d="M35.5095 36.5958C38.397 36.5958 40.7378 34.2621 40.7378 31.3834C40.7378 28.5046 38.397 26.171 35.5095 26.171C32.6219 26.171 30.2811 28.5046 30.2811 31.3834C30.2811 34.2621 32.6219 36.5958 35.5095 36.5958Z" fill="url(#paint8_linear_157_2)"/>
</mask>
<g mask="url(#mask4_157_2)">
<path d="M35.5095 36.5958C38.397 36.5958 40.7378 34.2621 40.7378 31.3834C40.7378 28.5046 38.397 26.171 35.5095 26.171C32.6219 26.171 30.2811 28.5046 30.2811 31.3834C30.2811 34.2621 32.6219 36.5958 35.5095 36.5958Z" fill="url(#paint9_linear_157_2)"/>
</g>
<mask id="mask5_157_2" style="mask-type:alpha" maskUnits="userSpaceOnUse" x="60" y="26" width="12" height="11">
<path d="M65.7905 36.5958C68.6781 36.5958 71.0189 34.2621 71.0189 31.3834C71.0189 28.5046 68.6781 26.171 65.7905 26.171C62.903 26.171 60.5621 28.5046 60.5621 31.3834C60.5621 34.2621 62.903 36.5958 65.7905 36.5958Z" fill="url(#paint10_linear_157_2)"/>
</mask>
<g mask="url(#mask5_157_2)">
<path d="M65.7905 36.5958C68.6781 36.5958 71.0189 34.2621 71.0189 31.3834C71.0189 28.5046 68.6781 26.171 65.7905 26.171C62.903 26.171 60.5621 28.5046 60.5621 31.3834C60.5621 34.2621 62.903 36.5958 65.7905 36.5958Z" fill="url(#paint11_linear_157_2)"/>
</g>
<mask id="mask6_157_2" style="mask-type:alpha" maskUnits="userSpaceOnUse" x="0" y="52" width="11" height="11">
<path d="M5.22839 62.7125C8.11595 62.7125 10.4568 60.3788 10.4568 57.5C10.4568 54.6212 8.11595 52.2875 5.22839 52.2875C2.34083 52.2875 0 54.6212 0 57.5C0 60.3788 2.34083 62.7125 5.22839 62.7125Z" fill="url(#paint12_linear_157_2)"/>
</mask>
<g mask="url(#mask6_157_2)">
<path d="M5.22839 62.7125C8.11595 62.7125 10.4568 60.3788 10.4568 57.5C10.4568 54.6212 8.11595 52.2875 5.22839 52.2875C2.34083 52.2875 0 54.6212 0 57.5C0 60.3788 2.34083 62.7125 5.22839 62.7125Z" fill="url(#paint13_linear_157_2)"/>
</g>
<mask id="mask7_157_2" style="mask-type:alpha" maskUnits="userSpaceOnUse" x="30" y="52" width="11" height="11">
<path d="M35.5095 62.7125C38.397 62.7125 40.7378 60.3788 40.7378 57.5C40.7378 54.6212 38.397 52.2875 35.5095 52.2875C32.6219 52.2875 30.2811 54.6212 30.2811 57.5C30.2811 60.3788 32.6219 62.7125 35.5095 62.7125Z" fill="url(#paint14_linear_157_2)"/>
</mask>
<g mask="url(#mask7_157_2)">
<path d="M35.5095 62.7125C38.397 62.7125 40.7378 60.3788 40.7378 57.5C40.7378 54.6212 38.397 52.2875 35.5095 52.2875C32.6219 52.2875 30.2811 54.6212 30.2811 57.5C30.2811 60.3788 32.6219 62.7125 35.5095 62.7125Z" fill="url(#paint15_linear_157_2)"/>
</g>
<mask id="mask8_157_2" style="mask-type:alpha" maskUnits="userSpaceOnUse" x="60" y="52" width="12" height="11">
<path d="M65.7905 62.7125C68.6781 62.7125 71.0189 60.3788 71.0189 57.5C71.0189 54.6212 68.6781 52.2875 65.7905 52.2875C62.903 52.2875 60.5621 54.6212 60.5621 57.5C60.5621 60.3788 62.903 62.7125 65.7905 62.7125Z" fill="url(#paint16_linear_157_2)"/>
</mask>
<g mask="url(#mask8_157_2)">
<path d="M65.7905 62.7125C68.6781 62.7125 71.0189 60.3788 71.0189 57.5C71.0189 54.6212 68.6781 52.2875 65.7905 52.2875C62.903 52.2875 60.5621 54.6212 60.5621 57.5C60.5621 60.3788 62.903 62.7125 65.7905 62.7125Z" fill="url(#paint17_linear_157_2)"/>
</g>
<mask id="mask9_157_2" style="mask-type:alpha" maskUnits="userSpaceOnUse" x="0" y="78" width="11" height="11">
<path d="M5.22839 88.8834C8.11595 88.8834 10.4568 86.5496 10.4568 83.6709C10.4568 80.7921 8.11595 78.4584 5.22839 78.4584C2.34083 78.4584 0 80.7921 0 83.6709C0 86.5496 2.34083 88.8834 5.22839 88.8834Z" fill="url(#paint18_linear_157_2)"/>
</mask>
<g mask="url(#mask9_157_2)">
<path d="M5.22839 88.8834C8.11595 88.8834 10.4568 86.5496 10.4568 83.6709C10.4568 80.7921 8.11595 78.4584 5.22839 78.4584C2.34083 78.4584 0 80.7921 0 83.6709C0 86.5496 2.34083 88.8834 5.22839 88.8834Z" fill="url(#paint19_linear_157_2)"/>
</g>
<mask id="mask10_157_2" style="mask-type:alpha" maskUnits="userSpaceOnUse" x="30" y="78" width="11" height="11">
<path d="M35.5095 88.8834C38.397 88.8834 40.7378 86.5496 40.7378 83.6709C40.7378 80.7921 38.397 78.4584 35.5095 78.4584C32.6219 78.4584 30.2811 80.7921 30.2811 83.6709C30.2811 86.5496 32.6219 88.8834 35.5095 88.8834Z" fill="url(#paint20_linear_157_2)"/>
</mask>
<g mask="url(#mask10_157_2)">
<path d="M35.5095 88.8834C38.397 88.8834 40.7378 86.5496 40.7378 83.6709C40.7378 80.7921 38.397 78.4584 35.5095 78.4584C32.6219 78.4584 30.2811 80.7921 30.2811 83.6709C30.2811 86.5496 32.6219 88.8834 35.5095 88.8834Z" fill="url(#paint21_linear_157_2)"/>
</g>
<mask id="mask11_157_2" style="mask-type:alpha" maskUnits="userSpaceOnUse" x="60" y="78" width="12" height="11">
<path d="M65.7905 88.8834C68.6781 88.8834 71.0189 86.5496 71.0189 83.6709C71.0189 80.7921 68.6781 78.4584 65.7905 78.4584C62.903 78.4584 60.5621 80.7921 60.5621 83.6709C60.5621 86.5496 62.903 88.8834 65.7905 88.8834Z" fill="url(#paint22_linear_157_2)"/>
</mask>
<g mask="url(#mask11_157_2)">
<path d="M65.7905 88.8834C68.6781 88.8834 71.0189 86.5496 71.0189 83.6709C71.0189 80.7921 68.6781 78.4584 65.7905 78.4584C62.903 78.4584 60.5621 80.7921 60.5621 83.6709C60.5621 86.5496 62.903 88.8834 65.7905 88.8834Z" fill="url(#paint23_linear_157_2)"/>
</g>
<mask id="mask12_157_2" style="mask-type:alpha" maskUnits="userSpaceOnUse" x="0" y="104" width="11" height="11">
<path d="M5.22839 115C8.11595 115 10.4568 112.666 10.4568 109.788C10.4568 106.909 8.11595 104.575 5.22839 104.575C2.34083 104.575 0 106.909 0 109.788C0 112.666 2.34083 115 5.22839 115Z" fill="url(#paint24_linear_157_2)"/>
</mask>
<g mask="url(#mask12_157_2)">
<path d="M5.22839 115C8.11595 115 10.4568 112.666 10.4568 109.788C10.4568 106.909 8.11595 104.575 5.22839 104.575C2.34083 104.575 0 106.909 0 109.788C0 112.666 2.34083 115 5.22839 115Z" fill="url(#paint25_linear_157_2)"/>
</g>
<mask id="mask13_157_2" style="mask-type:alpha" maskUnits="userSpaceOnUse" x="30" y="104" width="11" height="11">
<path d="M35.5095 115C38.397 115 40.7378 112.666 40.7378 109.788C40.7378 106.909 38.397 104.575 35.5095 104.575C32.6219 104.575 30.2811 106.909 30.2811 109.788C30.2811 112.666 32.6219 115 35.5095 115Z" fill="url(#paint26_linear_157_2)"/>
</mask>
<g mask="url(#mask13_157_2)">
<path d="M35.5095 115C38.397 115 40.7378 112.666 40.7378 109.788C40.7378 106.909 38.397 104.575 35.5095 104.575C32.6219 104.575 30.2811 106.909 30.2811 109.788C30.2811 112.666 32.6219 115 35.5095 115Z" fill="url(#paint27_linear_157_2)"/>
</g>
<mask id="mask14_157_2" style="mask-type:alpha" maskUnits="userSpaceOnUse" x="60" y="104" width="12" height="11">
<path d="M65.7905 115C68.6781 115 71.0189 112.666 71.0189 109.788C71.0189 106.909 68.6781 104.575 65.7905 104.575C62.903 104.575 60.5621 106.909 60.5621 109.788C60.5621 112.666 62.903 115 65.7905 115Z" fill="url(#paint28_linear_157_2)"/>
</mask>
<g mask="url(#mask14_157_2)">
<path d="M65.7905 115C68.6781 115 71.0189 112.666 71.0189 109.788C71.0189 106.909 68.6781 104.575 65.7905 104.575C62.903 104.575 60.5621 106.909 60.5621 109.788C60.5621 112.666 62.903 115 65.7905 115Z" fill="url(#paint29_linear_157_2)"/>
</g>
<defs>
<linearGradient id="paint0_linear_157_2" x1="46.8428" y1="110.551" x2="-24.5588" y2="-71.2526" gradientUnits="userSpaceOnUse">
<stop/>
<stop offset="1" stop-color="white"/>
</linearGradient>
<linearGradient id="paint1_linear_157_2" x1="46.8428" y1="110.551" x2="-24.5588" y2="-71.2526" gradientUnits="userSpaceOnUse">
<stop stop-color="#97C3F9"/>
<stop offset="1" stop-color="#93C1F9"/>
</linearGradient>
<linearGradient id="paint2_linear_157_2" x1="73.047" y1="100.259" x2="1.64538" y2="-81.5444" gradientUnits="userSpaceOnUse">
<stop/>
<stop offset="1" stop-color="white"/>
</linearGradient>
<linearGradient id="paint3_linear_157_2" x1="73.047" y1="100.259" x2="1.64538" y2="-81.5444" gradientUnits="userSpaceOnUse">
<stop stop-color="#97C3F9"/>
<stop offset="1" stop-color="#93C1F9"/>
</linearGradient>
<linearGradient id="paint4_linear_157_2" x1="99.2513" y1="89.9679" x2="27.8497" y2="-91.8359" gradientUnits="userSpaceOnUse">
<stop/>
<stop offset="1" stop-color="white"/>
</linearGradient>
<linearGradient id="paint5_linear_157_2" x1="99.2513" y1="89.9679" x2="27.8497" y2="-91.8359" gradientUnits="userSpaceOnUse">
<stop stop-color="#97C3F9"/>
<stop offset="1" stop-color="#93C1F9"/>
</linearGradient>
<linearGradient id="paint6_linear_157_2" x1="37.9003" y1="114.062" x2="-33.5001" y2="-67.7403" gradientUnits="userSpaceOnUse">
<stop/>
<stop offset="1" stop-color="white"/>
</linearGradient>
<linearGradient id="paint7_linear_157_2" x1="37.9003" y1="114.062" x2="-33.5001" y2="-67.7403" gradientUnits="userSpaceOnUse">
<stop stop-color="#97C3F9"/>
<stop offset="1" stop-color="#93C1F9"/>
</linearGradient>
<linearGradient id="paint8_linear_157_2" x1="64.1046" y1="103.771" x2="-7.29579" y2="-78.0318" gradientUnits="userSpaceOnUse">
<stop/>
<stop offset="1" stop-color="white"/>
</linearGradient>
<linearGradient id="paint9_linear_157_2" x1="64.1046" y1="103.771" x2="-7.29579" y2="-78.0318" gradientUnits="userSpaceOnUse">
<stop stop-color="#97C3F9"/>
<stop offset="1" stop-color="#93C1F9"/>
</linearGradient>
<linearGradient id="paint10_linear_157_2" x1="90.309" y1="93.4794" x2="18.9086" y2="-88.3231" gradientUnits="userSpaceOnUse">
<stop/>
<stop offset="1" stop-color="white"/>
</linearGradient>
<linearGradient id="paint11_linear_157_2" x1="90.309" y1="93.4794" x2="18.9086" y2="-88.3231" gradientUnits="userSpaceOnUse">
<stop stop-color="#97C3F9"/>
<stop offset="1" stop-color="#93C1F9"/>
</linearGradient>
<linearGradient id="paint12_linear_157_2" x1="28.9579" y1="117.575" x2="-42.4436" y2="-64.2288" gradientUnits="userSpaceOnUse">
<stop/>
<stop offset="1" stop-color="white"/>
</linearGradient>
<linearGradient id="paint13_linear_157_2" x1="28.9579" y1="117.575" x2="-42.4436" y2="-64.2288" gradientUnits="userSpaceOnUse">
<stop stop-color="#97C3F9"/>
<stop offset="1" stop-color="#93C1F9"/>
</linearGradient>
<linearGradient id="paint14_linear_157_2" x1="55.1622" y1="107.283" x2="-16.2394" y2="-74.5205" gradientUnits="userSpaceOnUse">
<stop/>
<stop offset="1" stop-color="white"/>
</linearGradient>
<linearGradient id="paint15_linear_157_2" x1="55.1622" y1="107.283" x2="-16.2394" y2="-74.5205" gradientUnits="userSpaceOnUse">
<stop stop-color="#97C3F9"/>
<stop offset="1" stop-color="#93C1F9"/>
</linearGradient>
<linearGradient id="paint16_linear_157_2" x1="81.3666" y1="96.9919" x2="9.96493" y2="-84.812" gradientUnits="userSpaceOnUse">
<stop/>
<stop offset="1" stop-color="white"/>
</linearGradient>
<linearGradient id="paint17_linear_157_2" x1="81.3666" y1="96.9919" x2="9.96493" y2="-84.812" gradientUnits="userSpaceOnUse">
<stop stop-color="#97C3F9"/>
<stop offset="1" stop-color="#93C1F9"/>
</linearGradient>
<linearGradient id="paint18_linear_157_2" x1="20.0155" y1="121.087" x2="-51.386" y2="-60.7168" gradientUnits="userSpaceOnUse">
<stop/>
<stop offset="1" stop-color="white"/>
</linearGradient>
<linearGradient id="paint19_linear_157_2" x1="20.0155" y1="121.087" x2="-51.386" y2="-60.7168" gradientUnits="userSpaceOnUse">
<stop stop-color="#97C3F9"/>
<stop offset="1" stop-color="#93C1F9"/>
</linearGradient>
<linearGradient id="paint20_linear_157_2" x1="46.2199" y1="110.795" x2="-25.1818" y2="-71.0084" gradientUnits="userSpaceOnUse">
<stop/>
<stop offset="1" stop-color="white"/>
</linearGradient>
<linearGradient id="paint21_linear_157_2" x1="46.2199" y1="110.795" x2="-25.1818" y2="-71.0084" gradientUnits="userSpaceOnUse">
<stop stop-color="#97C3F9"/>
<stop offset="1" stop-color="#93C1F9"/>
</linearGradient>
<linearGradient id="paint22_linear_157_2" x1="72.4242" y1="100.504" x2="1.02258" y2="-81.3" gradientUnits="userSpaceOnUse">
<stop/>
<stop offset="1" stop-color="white"/>
</linearGradient>
<linearGradient id="paint23_linear_157_2" x1="72.4242" y1="100.504" x2="1.02258" y2="-81.3" gradientUnits="userSpaceOnUse">
<stop stop-color="#97C3F9"/>
<stop offset="1" stop-color="#93C1F9"/>
</linearGradient>
<linearGradient id="paint24_linear_157_2" x1="11.0732" y1="124.599" x2="-60.3284" y2="-57.2047" gradientUnits="userSpaceOnUse">
<stop/>
<stop offset="1" stop-color="white"/>
</linearGradient>
<linearGradient id="paint25_linear_157_2" x1="11.0732" y1="124.599" x2="-60.3284" y2="-57.2047" gradientUnits="userSpaceOnUse">
<stop stop-color="#97C3F9"/>
<stop offset="1" stop-color="#93C1F9"/>
</linearGradient>
<linearGradient id="paint26_linear_157_2" x1="37.2775" y1="114.307" x2="-34.1241" y2="-67.4964" gradientUnits="userSpaceOnUse">
<stop/>
<stop offset="1" stop-color="white"/>
</linearGradient>
<linearGradient id="paint27_linear_157_2" x1="37.2775" y1="114.307" x2="-34.1241" y2="-67.4964" gradientUnits="userSpaceOnUse">
<stop stop-color="#97C3F9"/>
<stop offset="1" stop-color="#93C1F9"/>
</linearGradient>
<linearGradient id="paint28_linear_157_2" x1="63.4819" y1="104.016" x2="-7.91976" y2="-77.7879" gradientUnits="userSpaceOnUse">
<stop/>
<stop offset="1" stop-color="white"/>
</linearGradient>
<linearGradient id="paint29_linear_157_2" x1="63.4819" y1="104.016" x2="-7.91976" y2="-77.7879" gradientUnits="userSpaceOnUse">
<stop stop-color="#97C3F9"/>
<stop offset="1" stop-color="#93C1F9"/>
</linearGradient>
</defs>
</svg>
