<svg width="70" height="95" viewBox="0 0 70 95" fill="none" xmlns="http://www.w3.org/2000/svg">
<path d="M68.7774 3.79971L70.0599 90.1854C70.0953 92.5692 68.1979 94.5238 65.8141 94.5592L5.01892 95.4618C2.63487 95.4814 0.680277 93.584 0.645119 91.216L-0.637458 4.83032C-0.672851 2.4465 1.22455 0.491912 3.60837 0.45652L64.4193 -0.446347C66.7874 -0.481505 68.742 1.4159 68.7774 3.79971Z" fill="url(#paint0_linear_126_2)"/>
<path d="M64.4094 7.50134L65.5837 86.5993C65.6161 88.782 63.95 90.5707 61.8554 90.6018L8.43598 91.3949C6.34115 91.4115 4.62264 89.6731 4.59045 87.5049L3.41607 8.40692C3.38367 6.22421 5.04981 4.43557 7.14442 4.40447L60.5777 3.61114C62.6584 3.58025 64.3769 5.31863 64.4094 7.50134Z" fill="url(#paint1_linear_126_2)"/>
<path d="M26.4387 18.3712L26.4971 22.3021C26.5013 22.5863 26.2836 22.8106 25.9994 22.8148L21.1844 22.8863C20.9002 22.8905 20.6825 23.1148 20.6867 23.3989L20.7582 28.2139C20.7624 28.4981 20.5447 28.7224 20.2605 28.7266L16.3296 28.785C16.0454 28.7892 15.8212 28.5715 15.8169 28.2873L15.7454 23.4723C15.7412 23.1881 15.5169 22.9704 15.2328 22.9746L10.4336 23.0459C10.1494 23.0501 9.9251 22.8324 9.92088 22.5482L9.86251 18.6173C9.8583 18.3331 10.076 18.1088 10.3602 18.1046L15.1752 18.0331C15.4593 18.0289 15.6771 17.8046 15.6729 17.5204L15.6014 12.7054C15.5972 12.4213 15.8149 12.197 16.0991 12.1928L20.03 12.1344C20.3141 12.1302 20.5384 12.3479 20.5427 12.6321L20.6142 17.4471C20.6184 17.7312 20.8427 17.949 21.1268 17.9447L25.926 17.8735C26.2102 17.8693 26.4345 18.087 26.4387 18.3712Z" fill="url(#paint2_linear_126_2)"/>
<path opacity="0.5" d="M58.4568 39.3233L10.7331 40.0318C10.4174 40.0365 10.1611 39.7877 10.1564 39.472L10.1294 37.6565C10.1247 37.3407 10.3736 37.0844 10.6893 37.0797L58.413 36.3711C58.7287 36.3665 58.9851 36.6153 58.9897 36.931L59.0167 38.7465C59.0056 39.0625 58.7725 39.3186 58.4568 39.3233Z" fill="url(#paint3_linear_126_2)"/>
<path d="M58.1209 16.7007L34.4406 17.0523C34.1249 17.057 33.8686 16.8082 33.8639 16.4924L33.8371 14.6927C33.8325 14.377 34.0813 14.1206 34.397 14.116L58.0773 13.7644C58.3931 13.7597 58.6494 14.0085 58.6541 14.3243L58.681 16.1397C58.6697 16.4399 58.4367 16.696 58.1209 16.7007Z" fill="url(#paint4_linear_126_2)"/>
<path opacity="0.5" d="M51.2255 24.4772L34.5545 24.7247C34.2388 24.7294 33.9825 24.4805 33.9778 24.1648L33.9508 22.3493C33.9461 22.0336 34.195 21.7773 34.5107 21.7726L51.1816 21.5251C51.4974 21.5204 51.7537 21.7692 51.7584 22.0849L51.7854 23.9004C51.7743 24.2164 51.5412 24.4725 51.2255 24.4772Z" fill="url(#paint5_linear_126_2)"/>
<path opacity="0.5" d="M58.5848 47.9429L10.8611 48.6515C10.5454 48.6562 10.289 48.4073 10.2844 48.0916L10.2574 46.2761C10.2527 45.9603 10.5016 45.704 10.8173 45.6993L58.541 44.9908C58.8567 44.9861 59.113 45.2349 59.1177 45.5507L59.1447 47.3661C59.1336 47.6821 58.9005 47.9382 58.5848 47.9429Z" fill="url(#paint6_linear_126_2)"/>
<path opacity="0.5" d="M58.7128 56.5625L10.9891 57.2711C10.6733 57.2758 10.417 57.0269 10.4123 56.7112L10.3854 54.8957C10.3807 54.58 10.6295 54.3236 10.9452 54.319L58.6689 53.6104C58.9847 53.6057 59.241 53.8545 59.2457 54.1703L59.2729 56.0016C59.2615 56.3017 59.0285 56.5579 58.7128 56.5625Z" fill="url(#paint7_linear_126_2)"/>
<path opacity="0.5" d="M58.841 65.1979L11.1173 65.9065C10.8015 65.9112 10.5452 65.6623 10.5405 65.3466L10.5136 63.5311C10.5089 63.2154 10.7577 62.959 11.0735 62.9543L58.7971 62.2458C59.1129 62.2411 59.3692 62.4899 59.3739 62.8057L59.4008 64.6212C59.3898 64.9371 59.1567 65.1932 58.841 65.1979Z" fill="url(#paint8_linear_126_2)"/>
<path opacity="0.5" d="M58.969 73.8176L11.2453 74.5261C10.9295 74.5308 10.6732 74.282 10.6685 73.9662L10.6416 72.1507C10.6369 71.835 10.8857 71.5786 11.2014 71.574L58.9251 70.8654C59.2409 70.8607 59.4972 71.1096 59.5019 71.4253L59.5288 73.2408C59.5177 73.5568 59.2847 73.8129 58.969 73.8176Z" fill="url(#paint9_linear_126_2)"/>
<path opacity="0.5" d="M59.0969 82.4372L11.3732 83.1457C11.0575 83.1504 10.8012 82.9016 10.7965 82.5858L10.7695 80.7703C10.7648 80.4546 11.0137 80.1983 11.3294 80.1936L59.0531 79.485C59.3688 79.4803 59.6252 79.7292 59.6298 80.0449L59.6568 81.8604C59.6457 82.1764 59.4126 82.4325 59.0969 82.4372Z" fill="url(#paint10_linear_126_2)"/>
<path opacity="0.1" d="M68.7774 3.79971L70.0599 90.1854C70.0953 92.5692 68.1979 94.5238 65.8141 94.5592L5.01892 95.4618C2.63487 95.4814 0.680277 93.584 0.645119 91.216L0.622852 89.7163C37.4788 73.8524 53.8777 14.8689 57.5521 -0.344388L64.4036 -0.446113C66.7874 -0.481505 68.742 1.4159 68.7774 3.79971Z" fill="#1A6FB5" fill-opacity="0.4"/>
<defs>
<linearGradient id="paint0_linear_126_2" x1="96.1586" y1="125.096" x2="-6.78244" y2="-4.88981" gradientUnits="userSpaceOnUse">
<stop offset="0.3061" stop-color="#5BA7FC"/>
<stop offset="1" stop-color="#69B8FC"/>
</linearGradient>
<linearGradient id="paint1_linear_126_2" x1="8.02628" y1="7.43735" x2="58.389" y2="77.6831" gradientUnits="userSpaceOnUse">
<stop offset="0.3061" stop-color="white"/>
<stop offset="1" stop-color="white"/>
</linearGradient>
<linearGradient id="paint2_linear_126_2" x1="9.43847" y1="9.871" x2="24.8005" y2="34.1456" gradientUnits="userSpaceOnUse">
<stop stop-color="#B0F4FF"/>
<stop offset="0.368525" stop-color="#80E4FD"/>
<stop offset="1" stop-color="#6CDDFC"/>
</linearGradient>
<linearGradient id="paint3_linear_126_2" x1="10.1552" y1="38.5707" x2="58.9947" y2="37.8456" gradientUnits="userSpaceOnUse">
<stop stop-color="#6CBCFC"/>
<stop offset="1" stop-color="#458DFC"/>
</linearGradient>
<linearGradient id="paint4_linear_126_2" x1="33.851" y1="15.5936" x2="58.6589" y2="15.2253" gradientUnits="userSpaceOnUse">
<stop stop-color="#6CBCFC"/>
<stop offset="1" stop-color="#458DFC"/>
</linearGradient>
<linearGradient id="paint5_linear_126_2" x1="33.9649" y1="23.2699" x2="51.7637" y2="23.0057" gradientUnits="userSpaceOnUse">
<stop stop-color="#6CBCFC"/>
<stop offset="1" stop-color="#458DFC"/>
</linearGradient>
<linearGradient id="paint6_linear_126_2" x1="10.2832" y1="47.1943" x2="59.1228" y2="46.4691" gradientUnits="userSpaceOnUse">
<stop stop-color="#6CBCFC"/>
<stop offset="1" stop-color="#458DFC"/>
</linearGradient>
<linearGradient id="paint7_linear_126_2" x1="10.4112" y1="55.8178" x2="59.2508" y2="55.0927" gradientUnits="userSpaceOnUse">
<stop stop-color="#6CBCFC"/>
<stop offset="1" stop-color="#458DFC"/>
</linearGradient>
<linearGradient id="paint8_linear_126_2" x1="10.5393" y1="64.4413" x2="59.3788" y2="63.7162" gradientUnits="userSpaceOnUse">
<stop stop-color="#6CBCFC"/>
<stop offset="1" stop-color="#458DFC"/>
</linearGradient>
<linearGradient id="paint9_linear_126_2" x1="10.6673" y1="73.0648" x2="59.5069" y2="72.3397" gradientUnits="userSpaceOnUse">
<stop stop-color="#6CBCFC"/>
<stop offset="1" stop-color="#458DFC"/>
</linearGradient>
<linearGradient id="paint10_linear_126_2" x1="10.7953" y1="81.6884" x2="59.6349" y2="80.9632" gradientUnits="userSpaceOnUse">
<stop stop-color="#6CBCFC"/>
<stop offset="1" stop-color="#458DFC"/>
</linearGradient>
</defs>
</svg>
